<?xml version="1.0" encoding="UTF-8"?><svg xmlns="http://www.w3.org/2000/svg" xmlns:xlink="http://www.w3.org/1999/xlink" height="485.9" preserveAspectRatio="xMidYMid meet" version="1.0" viewBox="0.0 0.0 404.6 485.9" width="404.6" zoomAndPan="magnify"><g id="change1_1"><path d="M391.6689453,482.9731445l-29.4042969-30.8701172c-53.4052734-56.0664062-106.8105469-112.1347656-160.2080078-168.2011719 L12.9375,482.9663086c-2.1092987,2.219635-5.3751678,2.9344177-8.21875,1.7988281 C1.8753586,483.6296387,0.0003166,480.8620911,0,477.800293V7.5C0,3.3579102,3.3579102,0,7.5,0h389.5996094 c4.1425781,0,7.5,3.3579102,7.5,7.5v470.300293c0.0002747,3.0603027-1.8725891,5.8271179-4.7138672,6.9638672 C397.044281,485.901001,393.7796021,485.1893921,391.6689453,482.9731445z M202.0498047,265.5200195 c0.0001068,0,2.6549835,0.0009155,5.4306641,2.3271484c2.0836487,1.7462463,78.5926514,82.1006165,182.1191406,191.2050781V15H15 v444.0170898l181.6123047-191.1630859c1.4150391-1.4892578,3.3789062-2.3330078,5.4331055-2.3339844 C202.046875,265.5200195,202.0483398,265.5200195,202.0498047,265.5200195z" fill="inherit"/></g></svg>